# xmcd
#
# Track frame offsets: 
#        160
#        13229
#        27407
#        38151
#        56615
#        73991
#        86161
#        97996
#        116753
#        126770
#        140862
#        164964
#
# Disc length: 2436 seconds
#
# Revision: 7
# Processed by: cddbd v1.5.2PL0 Copyright (c) Steve Scherf et al.
# Submitted via: ExactAudioCopy v0.95b4
#
DISCID=b809820c
DTITLE=Мультfильмы - Суперпиз
DYEAR=2002
DGENRE=Rock
TTITLE0=Суперприз
TTITLE1=Пистолет
TTITLE2=За нами следят
TTITLE3=Никогда
TTITLE4=Марс
TTITLE5=Телевидение
TTITLE6=Мурашки
TTITLE7=Кофе
TTITLE8=Матросы
TTITLE9=Две капли лимонада
TTITLE10=Двадцать пятый год
TTITLE11=Яды
EXTD=YEAR: 2002 ID3G: 17
EXTT0=
EXTT1=
EXTT2=
EXTT3=
EXTT4=
EXTT5=
EXTT6=
EXTT7=
EXTT8=
EXTT9=
EXTT10=
EXTT11=
PLAYORDER=
